<svg xmlns="http://www.w3.org/2000/svg" width="1280" height="200" viewBox="0 0 1280 200" role="img" aria-labelledby="t d">
<title id="t">BistroLink · Documentación</title>
<desc id="d">Runbooks, seguridad y dashboards</desc>
<defs><linearGradient id="bg" x1="0" y1="0" x2="1" y2="1"><stop offset="0" stop-color="#381e72"/><stop offset="1" stop-color="#4f378a"/></linearGradient>
<clipPath id="r"><rect width="1280" height="200" rx="20"/></clipPath></defs>
<g clip-path="url(#r)">
<rect width="1280" height="200" fill="url(#bg)"/>
<circle cx="1160" cy="20" r="150" fill="#e0d4fd" opacity="0.07"/>
<circle cx="1230" cy="200" r="100" fill="#e0d4fd" opacity="0.06"/>
<circle cx="1150" cy="130" r="40" fill="none" stroke="#c9a74d" stroke-width="3" opacity="0.55"/>
<circle cx="1150" cy="130" r="21" fill="#c9a74d" opacity="0.22"/>
<rect x="96" y="40" width="40" height="6" rx="3" fill="#c9a74d" transform="translate(154.92000000000002 10)"/>
<path d="M97.3 62V48.6H102.9Q104.3 48.6 105.2 49Q106.2 49.5 106.7 50.3Q107.2 51.2 107.2 52.4Q107.2 53.3 106.7 54.1Q106.2 54.9 105.1 55.4L105.1 54.3Q106.1 54.7 106.7 55.2Q107.3 55.8 107.5 56.5Q107.7 57.1 107.7 57.9Q107.7 59.8 106.5 60.9Q105.2 62 103 62ZM99.7 59.8H103.2Q104.1 59.8 104.7 59.3Q105.3 58.8 105.3 57.9Q105.3 57 104.7 56.5Q104.1 55.9 103.2 55.9H99.7ZM99.7 53.8H103.1Q103.8 53.8 104.3 53.4Q104.7 52.9 104.7 52.2Q104.7 51.5 104.3 51.1Q103.8 50.7 103.1 50.7H99.7ZM112.9 62V48.6H115.4V62ZM125.9 62.2Q124.7 62.2 123.6 61.8Q122.5 61.3 121.7 60.4Q120.9 59.6 120.6 58.5L122.6 57.6Q123.1 58.8 124 59.4Q124.9 60.1 126.1 60.1Q126.7 60.1 127.2 59.9Q127.7 59.7 127.9 59.3Q128.2 58.9 128.2 58.4Q128.2 57.8 127.8 57.5Q127.5 57.1 126.8 56.9L124.2 56Q122.7 55.5 121.9 54.6Q121.1 53.6 121.1 52.3Q121.1 51.1 121.6 50.2Q122.2 49.4 123.2 48.9Q124.2 48.4 125.5 48.4Q126.7 48.4 127.8 48.8Q128.8 49.2 129.5 50Q130.2 50.7 130.6 51.7L128.6 52.6Q128.2 51.6 127.4 51.1Q126.6 50.5 125.5 50.5Q124.9 50.5 124.5 50.7Q124 50.9 123.7 51.3Q123.5 51.7 123.5 52.2Q123.5 52.7 123.8 53.2Q124.2 53.6 124.9 53.8L127.4 54.6Q129 55.1 129.8 56Q130.6 56.9 130.6 58.3Q130.6 59.4 130 60.3Q129.4 61.2 128.4 61.7Q127.3 62.2 125.9 62.2ZM138.4 62V50.8H134.9V48.6H144.3V50.8H140.8V62ZM148.9 62V48.6H153.9Q155.3 48.6 156.4 49.1Q157.4 49.6 158 50.5Q158.6 51.5 158.6 52.8Q158.6 54.2 158 55.2Q157.3 56.2 156.2 56.6L159.3 62H156.5L153.2 56.1L154.8 57H151.4V62ZM151.4 54.9H154Q154.6 54.9 155.1 54.6Q155.6 54.4 155.9 53.9Q156.2 53.4 156.2 52.8Q156.2 52.2 155.9 51.7Q155.6 51.3 155.1 51Q154.6 50.8 154 50.8H151.4ZM170.7 62.2Q169.2 62.2 167.9 61.7Q166.6 61.2 165.7 60.2Q164.7 59.3 164.2 58Q163.7 56.8 163.7 55.3Q163.7 53.8 164.2 52.5Q164.7 51.3 165.7 50.3Q166.6 49.4 167.9 48.9Q169.2 48.4 170.7 48.4Q172.2 48.4 173.4 48.9Q174.7 49.4 175.7 50.3Q176.6 51.3 177.1 52.5Q177.7 53.8 177.7 55.3Q177.7 56.8 177.1 58Q176.6 59.3 175.7 60.2Q174.7 61.2 173.4 61.7Q172.1 62.2 170.7 62.2ZM170.7 60Q171.6 60 172.5 59.6Q173.3 59.3 173.9 58.7Q174.5 58 174.9 57.2Q175.2 56.3 175.2 55.3Q175.2 54.3 174.9 53.4Q174.5 52.6 173.9 51.9Q173.3 51.3 172.5 50.9Q171.6 50.6 170.7 50.6Q169.7 50.6 168.9 50.9Q168 51.3 167.4 51.9Q166.8 52.6 166.4 53.4Q166.1 54.3 166.1 55.3Q166.1 56.3 166.4 57.2Q166.8 58 167.4 58.7Q168 59.3 168.9 59.6Q169.7 60 170.7 60ZM183.1 62V48.6H185.5V59.8H191.2V62ZM196 62V48.6H198.5V62ZM204.2 62V48.6H206.2L213.5 58.5L212.5 58.7V48.6H215V62H213.1L205.8 52L206.7 51.8V62ZM220.8 62V48.6H223.2V55.6L222.6 55.3L228.3 48.6H231.4L226 54.9L226.2 53.2L231.5 62H228.6L225 56.1L223.2 58.2V62Z" fill="#e9ddff"/>
<path d="M97.8 124V80.8H111.9Q118.9 80.8 124.1 83.6Q129.3 86.4 132.1 91.2Q134.9 96.1 134.9 102.4Q134.9 108.6 132.1 113.5Q129.3 118.4 124.1 121.2Q118.9 124 111.9 124ZM106.8 116.2H112.2Q116.4 116.2 119.5 114.5Q122.5 112.7 124.2 109.6Q126 106.6 126 102.3Q126 98.1 124.2 95.1Q122.5 92 119.5 90.3Q116.4 88.6 112.2 88.6H106.8ZM154.8 124.7Q150.1 124.7 146.2 122.5Q142.4 120.4 140.1 116.7Q137.8 112.9 137.8 108.2Q137.8 103.4 140.1 99.6Q142.4 95.9 146.2 93.8Q150.1 91.6 154.8 91.6Q159.5 91.6 163.3 93.8Q167.1 95.9 169.4 99.6Q171.7 103.4 171.7 108.2Q171.7 112.9 169.4 116.7Q167.1 120.4 163.3 122.5Q159.5 124.7 154.8 124.7ZM154.8 116.9Q157.1 116.9 158.9 115.8Q160.7 114.7 161.7 112.7Q162.7 110.7 162.7 108.2Q162.7 105.6 161.7 103.7Q160.7 101.7 158.9 100.6Q157.1 99.5 154.8 99.5Q152.4 99.5 150.6 100.6Q148.8 101.7 147.8 103.7Q146.8 105.6 146.8 108.2Q146.8 110.7 147.8 112.7Q148.8 114.7 150.6 115.8Q152.4 116.9 154.8 116.9ZM191.4 124.7Q186.6 124.7 182.8 122.5Q179 120.3 176.8 116.6Q174.5 112.8 174.5 108.1Q174.5 103.4 176.7 99.7Q178.9 95.9 182.8 93.8Q186.6 91.6 191.4 91.6Q194.9 91.6 197.9 92.9Q200.9 94.1 203.1 96.2Q205.2 98.4 206.1 101.4L198.6 104.6Q197.8 102.2 195.8 100.9Q193.9 99.5 191.4 99.5Q189.1 99.5 187.3 100.6Q185.6 101.7 184.5 103.6Q183.5 105.6 183.5 108.2Q183.5 110.7 184.5 112.7Q185.6 114.7 187.3 115.8Q189.1 116.9 191.4 116.9Q194 116.9 195.9 115.5Q197.8 114.1 198.6 111.7L206.1 115Q205.3 117.8 203.1 120Q201 122.2 198 123.4Q195 124.7 191.4 124.7ZM221.6 124.7Q217.8 124.7 215.1 123Q212.4 121.4 211 118.4Q209.6 115.5 209.6 111.5V92.3H218.3V110.8Q218.3 112.6 219 114Q219.8 115.4 221.1 116.1Q222.4 116.9 224.1 116.9Q225.8 116.9 227.2 116.1Q228.5 115.4 229.2 114Q229.9 112.6 229.9 110.8V92.3H238.6V124H230.5V117.7L231 119.1Q229.9 122 227.4 123.3Q224.9 124.7 221.6 124.7ZM244 124V92.3H252.1V100L251.2 98.8Q251.9 95.1 254.6 93.4Q257.3 91.6 261 91.6Q264.9 91.6 267.9 93.6Q270.9 95.6 271.7 99L269.2 99.2Q270.7 95.3 273.6 93.5Q276.5 91.6 280.4 91.6Q283.8 91.6 286.5 93.1Q289.1 94.7 290.6 97.3Q292.1 100 292.1 103.6V124H283.4V105.5Q283.4 103.6 282.8 102.3Q282.1 101 280.9 100.2Q279.7 99.5 277.9 99.5Q276.2 99.5 275 100.2Q273.7 101 273.1 102.3Q272.4 103.6 272.4 105.5V124H263.7V105.5Q263.7 103.6 263 102.3Q262.4 101 261.2 100.2Q259.9 99.5 258.2 99.5Q256.5 99.5 255.3 100.2Q254 101 253.4 102.3Q252.7 103.6 252.7 105.5V124ZM312.1 124.7Q307.1 124.7 303.4 122.5Q299.7 120.2 297.6 116.5Q295.6 112.7 295.6 108.1Q295.6 103.4 297.7 99.6Q299.8 95.9 303.4 93.8Q307 91.6 311.5 91.6Q315.3 91.6 318.2 92.8Q321.1 94 323.1 96.2Q325.1 98.3 326.2 101.1Q327.2 103.9 327.2 107.2Q327.2 108.2 327.1 109.1Q327 110 326.8 110.6H303.1V104.2H321.9L317.8 107.2Q318.3 104.7 317.7 102.8Q317.1 100.9 315.5 99.7Q313.9 98.6 311.5 98.6Q309.3 98.6 307.7 99.7Q306 100.8 305.2 102.9Q304.4 105.1 304.6 108.2Q304.4 110.8 305.2 112.9Q306.1 114.9 307.9 116Q309.7 117.2 312.2 117.2Q314.6 117.2 316.2 116.2Q317.9 115.3 318.8 113.7L325.8 117Q324.8 119.3 322.8 121Q320.8 122.8 318.1 123.7Q315.4 124.7 312.1 124.7ZM331.3 124V92.3H339.4V98.6L339 97.2Q340.1 94.4 342.5 93Q345 91.6 348.3 91.6Q351.9 91.6 354.6 93.1Q357.3 94.7 358.8 97.3Q360.3 100 360.3 103.7V124H351.6V105.5Q351.6 103.6 350.9 102.3Q350.2 101 348.8 100.2Q347.5 99.5 345.8 99.5Q344.1 99.5 342.8 100.2Q341.5 101 340.7 102.3Q340 103.6 340 105.5V124ZM380.3 124.3Q374.6 124.3 371.4 121.2Q368.2 118.1 368.2 112.6V99.9H362.9V92.3H363.2Q365.6 92.3 366.9 91.1Q368.2 89.9 368.2 87.5V85.1H376.9V92.3H384.4V99.9H376.9V112Q376.9 113.6 377.5 114.7Q378.1 115.8 379.3 116.3Q380.5 116.8 382.3 116.8Q382.7 116.8 383.3 116.8Q383.8 116.7 384.4 116.6V124Q383.5 124.1 382.4 124.2Q381.3 124.3 380.3 124.3ZM398.3 124.7Q394.9 124.7 392.4 123.6Q389.9 122.5 388.5 120.4Q387.2 118.4 387.2 115.5Q387.2 112.9 388.4 110.8Q389.6 108.7 392.2 107.4Q394.7 106 398.4 105.4L408.1 103.8V110.2L400 111.6Q398.2 112 397.2 112.8Q396.2 113.7 396.2 115.2Q396.2 116.7 397.3 117.5Q398.4 118.3 400 118.3Q402.2 118.3 403.8 117.4Q405.4 116.5 406.3 114.9Q407.2 113.3 407.2 111.4V103.1Q407.2 101.3 405.8 100.1Q404.4 98.9 401.9 98.9Q399.6 98.9 397.8 100.2Q396.1 101.4 395.3 103.5L388.3 100.2Q389.2 97.6 391.3 95.6Q393.3 93.7 396.1 92.7Q399 91.6 402.3 91.6Q406.3 91.6 409.4 93.1Q412.5 94.5 414.2 97.1Q415.9 99.7 415.9 103.1V124H407.8V118.9L409.8 118.5Q408.4 120.6 406.7 122Q405 123.4 402.9 124Q400.8 124.7 398.3 124.7ZM436.8 124.7Q432.1 124.7 428.3 122.5Q424.5 120.3 422.2 116.6Q420 112.8 420 108.1Q420 103.4 422.2 99.7Q424.4 95.9 428.2 93.8Q432.1 91.6 436.8 91.6Q440.4 91.6 443.4 92.9Q446.4 94.1 448.5 96.2Q450.7 98.4 451.6 101.4L444.1 104.6Q443.3 102.2 441.3 100.9Q439.4 99.5 436.8 99.5Q434.6 99.5 432.8 100.6Q431 101.7 430 103.6Q429 105.6 429 108.2Q429 110.7 430 112.7Q431 114.7 432.8 115.8Q434.6 116.9 436.8 116.9Q439.4 116.9 441.4 115.5Q443.3 114.1 444.1 111.7L451.6 115Q450.7 117.8 448.6 120Q446.5 122.2 443.4 123.4Q440.4 124.7 436.8 124.7ZM455.7 124V92.3H464.4V124ZM455.7 89.5V80.8H464.4V89.5ZM485.5 124.7Q480.8 124.7 477 122.5Q473.1 120.4 470.8 116.7Q468.5 112.9 468.5 108.2Q468.5 103.4 470.8 99.6Q473.1 95.9 477 93.8Q480.8 91.6 485.5 91.6Q490.2 91.6 494 93.8Q497.9 95.9 500.2 99.6Q502.5 103.4 502.5 108.2Q502.5 112.9 500.2 116.7Q497.9 120.4 494 122.5Q490.2 124.7 485.5 124.7ZM485.5 116.9Q487.9 116.9 489.7 115.8Q491.4 114.7 492.5 112.7Q493.5 110.7 493.5 108.2Q493.5 105.6 492.5 103.7Q491.4 101.7 489.7 100.6Q487.9 99.5 485.5 99.5Q483.1 99.5 481.3 100.6Q479.5 101.7 478.5 103.7Q477.5 105.6 477.5 108.2Q477.5 110.7 478.5 112.7Q479.5 114.7 481.3 115.8Q483.1 116.9 485.5 116.9ZM481.2 86.9 484.6 76.4H495.8L489.8 86.9ZM506.6 124V92.3H514.7V98.6L514.2 97.2Q515.3 94.4 517.8 93Q520.2 91.6 523.6 91.6Q527.1 91.6 529.8 93.1Q532.5 94.7 534.1 97.3Q535.6 100 535.6 103.7V124H526.9V105.5Q526.9 103.6 526.1 102.3Q525.4 101 524.1 100.2Q522.8 99.5 521.1 99.5Q519.4 99.5 518 100.2Q516.7 101 516 102.3Q515.3 103.6 515.3 105.5V124Z" fill="#ffffff"/>
<path d="M97.8 164V147.6H103.6Q105.2 147.6 106.5 148.2Q107.7 148.8 108.4 150Q109.1 151.1 109.1 152.7Q109.1 154.4 108.2 155.6Q107.3 156.8 105.8 157.4L109.6 164H107.1L103.1 156.9L104.6 157.7H100V164ZM100 155.8H103.7Q104.7 155.8 105.4 155.4Q106.1 155 106.5 154.3Q106.9 153.6 106.9 152.7Q106.9 151.7 106.5 151Q106.1 150.3 105.4 150Q104.7 149.6 103.7 149.6H100ZM116 164.3Q114.8 164.3 113.7 163.7Q112.7 163.1 112.2 162Q111.6 160.9 111.6 159.6V152.2H113.6V159.3Q113.6 160.2 114 160.9Q114.4 161.5 115 161.9Q115.7 162.3 116.5 162.3Q117.3 162.3 118 161.9Q118.6 161.5 119 160.8Q119.4 160.1 119.4 159.2V152.2H121.4V164H119.4V161.7L119.7 161.9Q119.3 163 118.3 163.6Q117.3 164.3 116 164.3ZM124.6 164V152.2H126.6V154.5L126.3 154.3Q126.7 153.1 127.7 152.5Q128.7 151.9 130 151.9Q131.3 151.9 132.3 152.5Q133.3 153 133.9 154Q134.4 155 134.4 156.3V164H132.4V157Q132.4 156 132 155.3Q131.7 154.6 131 154.2Q130.4 153.9 129.5 153.9Q128.7 153.9 128 154.2Q127.4 154.6 127 155.3Q126.7 156 126.7 157V164ZM143.5 164.3Q142.1 164.3 140.9 163.6Q139.7 163 139.1 161.8L139.4 161.5V164H137.3V147.3H139.4V154.7L139.1 154.2Q139.8 153.1 140.9 152.5Q142 151.9 143.5 151.9Q145.2 151.9 146.5 152.7Q147.8 153.5 148.6 154.9Q149.4 156.3 149.4 158.1Q149.4 159.8 148.6 161.2Q147.9 162.6 146.5 163.5Q145.2 164.3 143.5 164.3ZM143.3 162.3Q144.5 162.3 145.3 161.7Q146.2 161.2 146.7 160.2Q147.2 159.3 147.2 158.1Q147.2 156.9 146.7 155.9Q146.2 155 145.3 154.4Q144.5 153.9 143.3 153.9Q142.2 153.9 141.3 154.4Q140.4 155 139.9 155.9Q139.4 156.9 139.4 158.1Q139.4 159.3 139.9 160.2Q140.4 161.2 141.3 161.7Q142.2 162.3 143.3 162.3ZM157.7 164.3Q156 164.3 154.6 163.5Q153.2 162.7 152.4 161.2Q151.6 159.8 151.6 158.1Q151.6 156.3 152.4 154.9Q153.2 153.5 154.6 152.7Q156 151.9 157.7 151.9Q159.4 151.9 160.8 152.7Q162.2 153.5 163 154.9Q163.8 156.3 163.8 158.1Q163.8 159.9 163 161.3Q162.1 162.7 160.8 163.5Q159.4 164.3 157.7 164.3ZM157.7 162.3Q158.8 162.3 159.7 161.7Q160.6 161.2 161.1 160.2Q161.6 159.3 161.6 158.1Q161.6 156.9 161.1 155.9Q160.6 155 159.7 154.4Q158.8 153.9 157.7 153.9Q156.6 153.9 155.7 154.4Q154.8 155 154.3 155.9Q153.8 156.9 153.8 158.1Q153.8 159.3 154.3 160.2Q154.8 161.2 155.7 161.7Q156.6 162.3 157.7 162.3ZM172.1 164.3Q170.4 164.3 169 163.5Q167.6 162.7 166.8 161.2Q166 159.8 166 158.1Q166 156.3 166.8 154.9Q167.6 153.5 169 152.7Q170.4 151.9 172.1 151.9Q173.8 151.9 175.2 152.7Q176.6 153.5 177.4 154.9Q178.2 156.3 178.2 158.1Q178.2 159.9 177.4 161.3Q176.5 162.7 175.1 163.5Q173.8 164.3 172.1 164.3ZM172.1 162.3Q173.2 162.3 174.1 161.7Q175 161.2 175.5 160.2Q176 159.3 176 158.1Q176 156.9 175.5 155.9Q175 155 174.1 154.4Q173.2 153.9 172.1 153.9Q171 153.9 170.1 154.4Q169.2 155 168.7 155.9Q168.1 156.9 168.1 158.1Q168.1 159.3 168.7 160.2Q169.2 161.2 170.1 161.7Q171 162.3 172.1 162.3ZM180.8 164V147.3H182.9V158.8L182.1 158.6L188.4 152.2H191L186.4 156.9L191.3 164H188.9L184.4 157.6L185.7 157.5L182.2 161.1L182.9 159.6V164ZM197.4 164.3Q195.6 164.3 194.3 163.4Q193 162.5 192.4 161L194 160.2Q194.5 161.3 195.4 161.9Q196.3 162.5 197.4 162.5Q198.3 162.5 199 162.1Q199.6 161.6 199.6 160.8Q199.6 160.3 199.3 160Q199 159.7 198.6 159.5Q198.2 159.3 197.8 159.2L196 158.7Q194.5 158.2 193.7 157.4Q193 156.5 193 155.4Q193 154.3 193.5 153.5Q194 152.8 195 152.3Q195.9 151.9 197.1 151.9Q198.6 151.9 199.9 152.7Q201.1 153.5 201.7 154.9L200 155.7Q199.6 154.7 198.8 154.2Q198 153.7 197 153.7Q196.1 153.7 195.6 154.1Q195.1 154.6 195.1 155.3Q195.1 155.8 195.3 156.1Q195.6 156.4 196 156.6Q196.3 156.7 196.7 156.8L198.6 157.4Q200.1 157.8 200.9 158.7Q201.7 159.6 201.7 160.8Q201.7 161.8 201.1 162.6Q200.6 163.4 199.6 163.8Q198.6 164.3 197.4 164.3ZM204.7 167.1V166.1Q205.4 165.9 205.8 165.4Q206.1 164.9 206.1 164H205.2V161.4H207.3V163.2Q207.3 164.8 206.6 165.8Q206 166.8 204.7 167.1ZM219 164.3Q217.2 164.3 215.9 163.4Q214.6 162.5 214 161L215.7 160.2Q216.2 161.3 217 161.9Q217.9 162.5 219 162.5Q220 162.5 220.6 162.1Q221.2 161.6 221.2 160.8Q221.2 160.3 220.9 160Q220.6 159.7 220.2 159.5Q219.8 159.3 219.5 159.2L217.7 158.7Q216.1 158.2 215.3 157.4Q214.6 156.5 214.6 155.4Q214.6 154.3 215.1 153.5Q215.7 152.8 216.6 152.3Q217.5 151.9 218.7 151.9Q220.3 151.9 221.5 152.7Q222.8 153.5 223.3 154.9L221.6 155.7Q221.2 154.7 220.4 154.2Q219.6 153.7 218.7 153.7Q217.8 153.7 217.2 154.1Q216.7 154.6 216.7 155.3Q216.7 155.8 216.9 156.1Q217.2 156.4 217.6 156.6Q218 156.7 218.3 156.8L220.3 157.4Q221.7 157.8 222.5 158.7Q223.3 159.6 223.3 160.8Q223.3 161.8 222.8 162.6Q222.2 163.4 221.2 163.8Q220.3 164.3 219 164.3ZM231.5 164.3Q229.7 164.3 228.4 163.4Q227 162.6 226.3 161.2Q225.5 159.8 225.5 158Q225.5 156.3 226.3 154.9Q227 153.5 228.3 152.7Q229.6 151.9 231.3 151.9Q232.6 151.9 233.6 152.4Q234.6 152.8 235.4 153.6Q236.1 154.4 236.5 155.5Q236.8 156.5 236.8 157.6Q236.8 157.8 236.8 158.1Q236.8 158.4 236.7 158.7H227V156.9H235.6L234.6 157.7Q234.8 156.6 234.4 155.7Q233.9 154.8 233.1 154.2Q232.3 153.7 231.3 153.7Q230.2 153.7 229.4 154.2Q228.5 154.8 228 155.7Q227.6 156.7 227.7 158.1Q227.6 159.4 228.1 160.3Q228.6 161.3 229.5 161.9Q230.4 162.4 231.5 162.4Q232.7 162.4 233.5 161.8Q234.3 161.3 234.8 160.4L236.5 161.3Q236.2 162.1 235.4 162.8Q234.7 163.5 233.7 163.9Q232.7 164.3 231.5 164.3ZM245.2 168.8Q243.9 168.8 242.8 168.4Q241.8 168 241 167.4Q240.2 166.7 239.9 165.7L241.8 164.9Q242.1 165.7 242.9 166.3Q243.8 166.9 245.1 166.9Q246.1 166.9 247 166.5Q247.8 166.1 248.3 165.3Q248.8 164.6 248.8 163.5V160.8L249.1 161.2Q248.5 162.4 247.4 163.1Q246.2 163.7 244.8 163.7Q243.2 163.7 241.8 162.9Q240.5 162.2 239.8 160.8Q239 159.5 239 157.8Q239 156.1 239.8 154.8Q240.5 153.5 241.8 152.7Q243.1 151.9 244.8 151.9Q246.2 151.9 247.3 152.5Q248.4 153.1 249.1 154.2L248.8 154.8V152.2H250.8V163.5Q250.8 165 250.1 166.2Q249.4 167.4 248.1 168.1Q246.8 168.8 245.2 168.8ZM245 161.7Q246.1 161.7 246.9 161.2Q247.8 160.7 248.3 159.8Q248.8 158.9 248.8 157.8Q248.8 156.7 248.3 155.8Q247.8 154.9 246.9 154.4Q246.1 153.9 245 153.9Q243.9 153.9 243 154.4Q242.2 154.9 241.7 155.8Q241.2 156.7 241.2 157.8Q241.2 158.9 241.7 159.8Q242.2 160.7 243 161.2Q243.9 161.7 245 161.7ZM258.2 164.3Q256.9 164.3 255.9 163.7Q254.9 163.1 254.3 162Q253.8 160.9 253.8 159.6V152.2H255.8V159.3Q255.8 160.2 256.2 160.9Q256.5 161.5 257.2 161.9Q257.8 162.3 258.7 162.3Q259.5 162.3 260.2 161.9Q260.8 161.5 261.2 160.8Q261.5 160.1 261.5 159.2V152.2H263.6V164H261.6V161.7L261.9 161.9Q261.5 163 260.5 163.6Q259.5 164.3 258.2 164.3ZM266.8 164V152.2H268.8V154.3L268.5 154Q269 153 269.8 152.5Q270.7 152 271.9 152H272.6V154H271.6Q270.3 154 269.6 154.7Q268.8 155.5 268.8 156.9V164ZM274.5 164V152.2H276.5V164ZM274.5 150.2V147.6H276.5V150.2ZM285.1 164.3Q283.4 164.3 282.1 163.5Q280.7 162.6 280 161.2Q279.2 159.8 279.2 158.1Q279.2 156.3 280 154.9Q280.7 153.5 282.1 152.7Q283.4 151.9 285.1 151.9Q286.5 151.9 287.7 152.5Q288.8 153.1 289.5 154.2L289.2 154.7V147.3H291.2V164H289.2V161.5L289.5 161.8Q288.9 163 287.7 163.6Q286.5 164.3 285.1 164.3ZM285.2 162.3Q286.4 162.3 287.2 161.7Q288.1 161.2 288.6 160.2Q289.2 159.3 289.2 158.1Q289.2 156.9 288.6 155.9Q288.1 155 287.2 154.4Q286.4 153.9 285.2 153.9Q284.1 153.9 283.3 154.4Q282.4 155 281.9 155.9Q281.4 156.9 281.4 158.1Q281.4 159.3 281.9 160.2Q282.4 161.2 283.2 161.7Q284.1 162.3 285.2 162.3ZM297.9 164.3Q296.7 164.3 295.8 163.8Q294.9 163.4 294.4 162.7Q293.9 161.9 293.9 160.9Q293.9 160 294.3 159.2Q294.7 158.4 295.6 157.9Q296.5 157.4 297.8 157.2L302.2 156.4V158.2L298.2 158.8Q297.1 159 296.6 159.5Q296.1 160.1 296.1 160.8Q296.1 161.6 296.6 162Q297.2 162.5 298.1 162.5Q299.2 162.5 300.1 162.1Q300.9 161.6 301.4 160.8Q301.8 160 301.8 159V155.9Q301.8 155 301.1 154.4Q300.4 153.8 299.2 153.8Q298.2 153.8 297.4 154.3Q296.7 154.8 296.3 155.7L294.5 154.7Q294.8 153.9 295.6 153.3Q296.3 152.6 297.3 152.3Q298.2 151.9 299.3 151.9Q300.6 151.9 301.7 152.4Q302.7 152.9 303.3 153.8Q303.9 154.7 303.9 155.9V164H301.9V161.8L302.2 161.9Q301.9 162.6 301.2 163.1Q300.6 163.7 299.7 164Q298.9 164.3 297.9 164.3ZM312.4 164.3Q310.8 164.3 309.4 163.5Q308.1 162.6 307.3 161.2Q306.6 159.8 306.6 158.1Q306.6 156.3 307.3 154.9Q308.1 153.5 309.4 152.7Q310.8 151.9 312.4 151.9Q313.9 151.9 315.1 152.5Q316.2 153.1 316.9 154.2L316.5 154.7V147.3H318.6V164H316.6V161.5L316.9 161.8Q316.2 163 315.1 163.6Q313.9 164.3 312.4 164.3ZM312.6 162.3Q313.7 162.3 314.6 161.7Q315.5 161.2 316 160.2Q316.5 159.3 316.5 158.1Q316.5 156.9 316 155.9Q315.5 155 314.6 154.4Q313.7 153.9 312.6 153.9Q311.5 153.9 310.6 154.4Q309.7 155 309.2 155.9Q308.7 156.9 308.7 158.1Q308.7 159.3 309.2 160.2Q309.7 161.2 310.6 161.7Q311.5 162.3 312.6 162.3ZM326.2 168.8Q325.8 168.8 325.4 168.8Q325 168.7 324.7 168.6V166.7Q324.9 166.8 325.3 166.8Q325.6 166.9 326 166.9Q327 166.9 327.6 166.4Q328.1 166 328.6 164.9L329.3 163.1L329.3 164.9L324.2 152.2H326.4L330.4 162.3H329.7L333.6 152.2H335.9L330.6 165.4Q330.2 166.4 329.6 167.1Q329 167.9 328.2 168.4Q327.4 168.8 326.2 168.8ZM346.9 164.3Q345.3 164.3 343.9 163.5Q342.6 162.6 341.8 161.2Q341 159.8 341 158.1Q341 156.3 341.8 154.9Q342.6 153.5 343.9 152.7Q345.2 151.9 346.9 151.9Q348.4 151.9 349.5 152.5Q350.7 153.1 351.4 154.2L351 154.7V147.3H353.1V164H351.1V161.5L351.4 161.8Q350.7 163 349.6 163.6Q348.4 164.3 346.9 164.3ZM347.1 162.3Q348.2 162.3 349.1 161.7Q350 161.2 350.5 160.2Q351 159.3 351 158.1Q351 156.9 350.5 155.9Q350 155 349.1 154.4Q348.2 153.9 347.1 153.9Q346 153.9 345.1 154.4Q344.2 155 343.7 155.9Q343.2 156.9 343.2 158.1Q343.2 159.3 343.7 160.2Q344.2 161.2 345.1 161.7Q346 162.3 347.1 162.3ZM359.7 164.3Q358.6 164.3 357.7 163.8Q356.8 163.4 356.3 162.7Q355.8 161.9 355.8 160.9Q355.8 160 356.2 159.2Q356.6 158.4 357.5 157.9Q358.3 157.4 359.7 157.2L364 156.4V158.2L360.1 158.8Q359 159 358.5 159.5Q357.9 160.1 357.9 160.8Q357.9 161.6 358.5 162Q359.1 162.5 360 162.5Q361.1 162.5 361.9 162.1Q362.8 161.6 363.2 160.8Q363.7 160 363.7 159V155.9Q363.7 155 363 154.4Q362.3 153.8 361.1 153.8Q360.1 153.8 359.3 154.3Q358.5 154.8 358.1 155.7L356.4 154.7Q356.7 153.9 357.4 153.3Q358.2 152.6 359.1 152.3Q360.1 151.9 361.1 151.9Q362.5 151.9 363.5 152.4Q364.6 152.9 365.2 153.8Q365.7 154.7 365.7 155.9V164H363.7V161.8L364.1 161.9Q363.7 162.6 363.1 163.1Q362.5 163.7 361.6 164Q360.8 164.3 359.7 164.3ZM373.1 164.3Q371.4 164.3 370.1 163.4Q368.7 162.5 368.2 161L369.8 160.2Q370.3 161.3 371.2 161.9Q372.1 162.5 373.1 162.5Q374.1 162.5 374.8 162.1Q375.4 161.6 375.4 160.8Q375.4 160.3 375.1 160Q374.8 159.7 374.4 159.5Q374 159.3 373.6 159.2L371.8 158.7Q370.2 158.2 369.5 157.4Q368.8 156.5 368.8 155.4Q368.8 154.3 369.3 153.5Q369.8 152.8 370.8 152.3Q371.7 151.9 372.9 151.9Q374.4 151.9 375.7 152.7Q376.9 153.5 377.4 154.9L375.8 155.7Q375.4 154.7 374.6 154.2Q373.8 153.7 372.8 153.7Q371.9 153.7 371.4 154.1Q370.8 154.6 370.8 155.3Q370.8 155.8 371.1 156.1Q371.4 156.4 371.7 156.6Q372.1 156.7 372.5 156.8L374.4 157.4Q375.9 157.8 376.7 158.7Q377.5 159.6 377.5 160.8Q377.5 161.8 376.9 162.6Q376.4 163.4 375.4 163.8Q374.4 164.3 373.1 164.3ZM380.1 164V147.3H382.2V154.5L381.8 154.3Q382.3 153.1 383.2 152.5Q384.2 151.9 385.5 151.9Q386.8 151.9 387.8 152.5Q388.8 153 389.4 154Q390 155 390 156.3V164H387.9V157Q387.9 156 387.6 155.3Q387.2 154.6 386.5 154.2Q385.9 153.9 385.1 153.9Q384.3 153.9 383.6 154.2Q383 154.6 382.6 155.3Q382.2 156 382.2 157V164ZM399.1 164.3Q397.6 164.3 396.4 163.6Q395.3 163 394.6 161.8L394.9 161.5V164H392.9V147.3H395V154.7L394.6 154.2Q395.3 153.1 396.5 152.5Q397.6 151.9 399.1 151.9Q400.7 151.9 402.1 152.7Q403.4 153.5 404.2 154.9Q404.9 156.3 404.9 158.1Q404.9 159.8 404.2 161.2Q403.4 162.6 402.1 163.5Q400.7 164.3 399.1 164.3ZM398.9 162.3Q400 162.3 400.9 161.7Q401.8 161.2 402.3 160.2Q402.8 159.3 402.8 158.1Q402.8 156.9 402.3 155.9Q401.8 155 400.9 154.4Q400 153.9 398.9 153.9Q397.8 153.9 396.9 154.4Q396 155 395.5 155.9Q395 156.9 395 158.1Q395 159.3 395.5 160.2Q396 161.2 396.9 161.7Q397.8 162.3 398.9 162.3ZM413.3 164.3Q411.6 164.3 410.2 163.5Q408.8 162.7 408 161.2Q407.1 159.8 407.1 158.1Q407.1 156.3 407.9 154.9Q408.8 153.5 410.1 152.7Q411.5 151.9 413.3 151.9Q415 151.9 416.4 152.7Q417.7 153.5 418.5 154.9Q419.3 156.3 419.3 158.1Q419.3 159.9 418.5 161.3Q417.7 162.7 416.3 163.5Q414.9 164.3 413.3 164.3ZM413.3 162.3Q414.4 162.3 415.3 161.7Q416.1 161.2 416.7 160.2Q417.2 159.3 417.2 158.1Q417.2 156.9 416.7 155.9Q416.1 155 415.3 154.4Q414.4 153.9 413.3 153.9Q412.1 153.9 411.2 154.4Q410.4 155 409.8 155.9Q409.3 156.9 409.3 158.1Q409.3 159.3 409.8 160.2Q410.4 161.2 411.2 161.7Q412.1 162.3 413.3 162.3ZM425.5 164.3Q424.3 164.3 423.4 163.8Q422.5 163.4 422 162.7Q421.5 161.9 421.5 160.9Q421.5 160 421.9 159.2Q422.3 158.4 423.2 157.9Q424.1 157.4 425.4 157.2L429.8 156.4V158.2L425.9 158.8Q424.7 159 424.2 159.5Q423.7 160.1 423.7 160.8Q423.7 161.6 424.3 162Q424.8 162.5 425.7 162.5Q426.9 162.5 427.7 162.1Q428.5 161.6 429 160.8Q429.4 160 429.4 159V155.9Q429.4 155 428.7 154.4Q428 153.8 426.9 153.8Q425.8 153.8 425.1 154.3Q424.3 154.8 423.9 155.7L422.1 154.7Q422.5 153.9 423.2 153.3Q423.9 152.6 424.9 152.3Q425.8 151.9 426.9 151.9Q428.3 151.9 429.3 152.4Q430.3 152.9 430.9 153.8Q431.5 154.7 431.5 155.9V164H429.5V161.8L429.9 161.9Q429.5 162.6 428.9 163.1Q428.2 163.7 427.4 164Q426.5 164.3 425.5 164.3ZM434.7 164V152.2H436.7V154.3L436.4 154Q436.9 153 437.7 152.5Q438.6 152 439.8 152H440.5V154H439.5Q438.2 154 437.5 154.7Q436.7 155.5 436.7 156.9V164ZM447.8 164.3Q446.1 164.3 444.7 163.5Q443.4 162.6 442.6 161.2Q441.9 159.8 441.9 158.1Q441.9 156.3 442.6 154.9Q443.4 153.5 444.7 152.7Q446.1 151.9 447.8 151.9Q449.2 151.9 450.4 152.5Q451.5 153.1 452.2 154.2L451.9 154.7V147.3H453.9V164H451.9V161.5L452.2 161.8Q451.6 163 450.4 163.6Q449.2 164.3 447.8 164.3ZM447.9 162.3Q449 162.3 449.9 161.7Q450.8 161.2 451.3 160.2Q451.9 159.3 451.9 158.1Q451.9 156.9 451.3 155.9Q450.8 155 449.9 154.4Q449 153.9 447.9 153.9Q446.8 153.9 445.9 154.4Q445.1 155 444.5 155.9Q444 156.9 444 158.1Q444 159.3 444.5 160.2Q445.1 161.2 445.9 161.7Q446.8 162.3 447.9 162.3ZM461.3 164.3Q459.6 164.3 458.2 163.4Q456.9 162.5 456.3 161L458 160.2Q458.5 161.3 459.4 161.9Q460.3 162.5 461.3 162.5Q462.3 162.5 462.9 162.1Q463.6 161.6 463.6 160.8Q463.6 160.3 463.3 160Q463 159.7 462.6 159.5Q462.1 159.3 461.8 159.2L460 158.7Q458.4 158.2 457.7 157.4Q456.9 156.5 456.9 155.4Q456.9 154.3 457.5 153.5Q458 152.8 458.9 152.3Q459.9 151.9 461 151.9Q462.6 151.9 463.8 152.7Q465.1 153.5 465.6 154.9L463.9 155.7Q463.5 154.7 462.8 154.2Q462 153.7 461 153.7Q460.1 153.7 459.5 154.1Q459 154.6 459 155.3Q459 155.8 459.3 156.1Q459.5 156.4 459.9 156.6Q460.3 156.7 460.6 156.8L462.6 157.4Q464 157.8 464.8 158.7Q465.6 159.6 465.6 160.8Q465.6 161.8 465.1 162.6Q464.5 163.4 463.6 163.8Q462.6 164.3 461.3 164.3Z" fill="#e0d4fd" opacity="0.85"/>
</g>
</svg>
